<?xml version="1.0" encoding="utf-8"?><!DOCTYPE svg PUBLIC "-//W3C//DTD SVG 1.1//EN" "http://www.w3.org/Graphics/SVG/1.1/DTD/svg11.dtd"><svg width="652" height="512" viewBox="0 0 652 512" xmlns="http://www.w3.org/2000/svg" xmlns:xlink="http://www.w3.org/1999/xlink"><svg width="140" height="130" viewBox="0 0 140 130" id="experience" x="512"><path fill="#8CC34B" d="M132.423 56.463a6.485 6.485 0 0 1-6.484 6.484c3.58 0 6.483 2.9 6.483 6.48 0-3.58 2.9-6.48 6.48-6.48a6.482 6.482 0 0 1-6.48-6.484zM41.374 69.506a4.04 4.04 0 0 1-4.04 4.04 4.04 4.04 0 0 1 4.04 4.038c0-2.23 1.806-4.04 4.037-4.04a4.037 4.037 0 0 1-4.036-4.038zM86.33 0a6.088 6.088 0 0 1-6.086 6.086 6.086 6.086 0 0 1 6.086 6.084 6.083 6.083 0 0 1 6.084-6.084A6.084 6.084 0 0 1 86.33 0zM48.88 107.53a4.32 4.32 0 0 1-4.32 4.32 4.32 4.32 0 0 1 4.32 4.322 4.32 4.32 0 0 1 4.32-4.322 4.32 4.32 0 0 1-4.32-4.32z"/><linearGradient id="aa" gradientUnits="userSpaceOnUse" x1=".248" y1="68.519" x2="14.115" y2="68.519"><stop offset="0" stop-color="#f79d2a"/><stop offset="1" stop-color="#ffcd2e"/></linearGradient><path fill="url(#aa)" d="M7.183 61.585A6.936 6.936 0 0 1 .248 68.52a6.936 6.936 0 0 1 6.935 6.934 6.933 6.933 0 0 1 6.933-6.934 6.933 6.933 0 0 1-6.933-6.935z"/><linearGradient id="ab" gradientUnits="userSpaceOnUse" x1="94.738" y1="78.005" x2="103.648" y2="78.005"><stop offset="0" stop-color="#f79d2a"/><stop offset="1" stop-color="#ffcd2e"/></linearGradient><path fill="url(#ab)" d="M99.195 73.55a4.458 4.458 0 0 1-4.457 4.456 4.455 4.455 0 0 1 4.457 4.455 4.453 4.453 0 0 1 4.453-4.454 4.456 4.456 0 0 1-4.453-4.457z"/><linearGradient id="ac" gradientUnits="userSpaceOnUse" x1="127.488" y1="111.997" x2="140" y2="111.997"><stop offset="0" stop-color="#f79d2a"/><stop offset="1" stop-color="#ffcd2e"/></linearGradient><path fill="url(#ac)" d="M133.746 105.74a6.258 6.258 0 0 1-6.258 6.257c3.455 0 6.258 2.8 6.258 6.256 0-3.455 2.8-6.256 6.254-6.256a6.254 6.254 0 0 1-6.254-6.256z"/><linearGradient id="ad" gradientUnits="userSpaceOnUse" x1="104.482" y1="19.317" x2="112.242" y2="19.317"><stop offset="0" stop-color="#f79d2a"/><stop offset="1" stop-color="#ffcd2e"/></linearGradient><path fill="url(#ad)" d="M108.36 15.438a3.877 3.877 0 0 1-3.878 3.88 3.878 3.878 0 0 1 3.88 3.88 3.88 3.88 0 0 1 3.88-3.88 3.88 3.88 0 0 1-3.88-3.88z"/><linearGradient id="ae" gradientUnits="userSpaceOnUse" x1="13.315" y1="110.582" x2="21.35" y2="110.582"><stop offset="0" stop-color="#f79d2a"/><stop offset="1" stop-color="#ffcd2e"/></linearGradient><path fill="url(#ae)" d="M17.332 106.565a4.02 4.02 0 0 1-4.018 4.018 4.017 4.017 0 0 1 4.018 4.018 4.016 4.016 0 0 1 4.018-4.017c-2.22 0-4.018-1.8-4.018-4.018z"/><linearGradient id="af" gradientUnits="userSpaceOnUse" x1="64.644" y1="125.679" x2="73.287" y2="125.679"><stop offset="0" stop-color="#f79d2a"/><stop offset="1" stop-color="#ffcd2e"/></linearGradient><path fill="url(#af)" d="M68.966 121.358a4.32 4.32 0 0 1-4.32 4.32 4.32 4.32 0 0 1 4.32 4.322 4.32 4.32 0 0 1 4.32-4.322 4.32 4.32 0 0 1-4.32-4.32z"/><linearGradient id="ag" gradientUnits="userSpaceOnUse" y1="16.127" x2="7.982" y2="16.127"><stop offset="0" stop-color="#f79d2a"/><stop offset="1" stop-color="#ffcd2e"/></linearGradient><path fill="url(#ag)" d="M3.992 12.136A3.99 3.99 0 0 1 0 16.126a3.992 3.992 0 0 1 3.992 3.992 3.99 3.99 0 0 1 3.99-3.99 3.99 3.99 0 0 1-3.99-3.992z"/><linearGradient id="ah" gradientUnits="userSpaceOnUse" x1="60.302" y1="89.1" x2="77.087" y2="89.1"><stop offset="0" stop-color="#76767d"/><stop offset="1" stop-color="#a4a8a8"/></linearGradient><path fill="url(#ah)" stroke="#444" stroke-width="2" stroke-miterlimit="10" d="M75.628 85.178H61.76c-.806 0-1.458 1.482-1.458 2.29 0 .804.652 2.286 1.458 2.286h4.647l-5.09.95c-.765.247-1.186.718-.94 1.483.2.617.773.834 1.39.834.148 0 .3-.112.45-.157l13.862-4.54c.68-.222 1.1-1.058.99-1.767-.115-.706-.725-1.378-1.442-1.378z"/><linearGradient id="ai" gradientUnits="userSpaceOnUse" x1="60.301" y1="95.53" x2="77.07" y2="95.53"><stop offset="0" stop-color="#76767d"/><stop offset="1" stop-color="#a4a8a8"/></linearGradient><path fill="url(#ai)" stroke="#444" stroke-width="2" stroke-miterlimit="10" d="M75.61 95.477h-4.634l5.086-2.3c.766-.245 1.186-1.392.936-2.16-.25-.765-1.068-1.347-1.838-1.1l-13.85 4.415c-.684.225-1.103 1.203-.99 1.912.11.707.723 1.52 1.44 1.52h1.26l2.203 3.435h6.873l2.238-3.435h1.277c.808 0 1.458-.34 1.458-1.145 0-.805-.65-1.143-1.457-1.143z"/><linearGradient id="aj" gradientUnits="userSpaceOnUse" x1="49.016" y1="60.078" x2="88.386" y2="60.078"><stop offset="0" stop-color="#f79d2a"/><stop offset="1" stop-color="#ffcd2e"/></linearGradient><path fill="url(#aj)" stroke="#515151" stroke-width="2" stroke-miterlimit="10" d="M68.696 36.465c-10.862.013-19.68 8.82-19.68 19.685 0 5.222 2.655 9.73 5.347 13.77 5.945 8.933 2.567 13.77 6 13.77H77.05c3.436 0 .05-4.837 5.994-13.77 2.69-4.04 5.34-8.408 5.34-13.626.002-10.87-8.826-19.816-19.69-19.83z"/><path fill="#FFF" d="M77.695 62.196c-.04.105-4.25 10.583-3.914 19.937.02.574-.304 1.06-.72 1.088-.016.005-.027.005-.04.005-.4 0-.74-.434-.757-.99-.28-7.852 2.324-16.135 3.523-19.506h-2.754c-.36 0-.67-.353-.74-.827l-1.053 3.182c-.147.435-.493.682-.832.593-.342-.084-.598-.477-.62-.956l-.085-1.834-.74 2.56c-.135.464-.486.74-.85.638-.356-.094-.614-.522-.614-1.022v-1.937l-.687 2.13c-.145.442-.497.698-.84.6-.346-.09-.6-.5-.612-.984l-.08-3.23-.314.633c-.142.283-.378.458-.63.458H61.69c2.894 7.278 3.35 18.875 3.368 19.4.02.577-.303 1.064-.72 1.093-.415.063-.776-.41-.796-.986-.006-.13-.528-13.425-3.83-19.95a1.36 1.36 0 0 1-.048-1.077c.132-.343.388-.556.672-.556h3.598l1.392-2.822c.184-.372.522-.54.838-.416.316.124.536.51.55.96l.048 1.887.804-2.494c.145-.447.498-.695.85-.602.354.105.603.53.603 1.022v1.435l.525-1.815c.133-.45.48-.718.825-.645.35.078.62.476.638.964l.105 2.305.883-2.67c.14-.422.47-.66.805-.598.335.068.597.43.64.89l.262 2.604h3.338c.268 0 .516.198.652.516.134.305.136.696.003 1.02z"/><path opacity=".3" fill="none" stroke="#FFF" stroke-width="3" stroke-linecap="round" stroke-miterlimit="10" d="M71.29 41.375c-9.588 0-17.364 7.848-17.364 17.528"/><g opacity=".7"><linearGradient id="ak" gradientUnits="userSpaceOnUse" x1="62.648" y1="152.042" x2="71.409" y2="152.042" gradientTransform="rotate(30.174 263.833 182.44)"><stop offset="0" stop-color="#76767d"/><stop offset="1" stop-color="#a4a8a8"/></linearGradient><path fill="url(#ak)" stroke="#444" stroke-miterlimit="10" d="M113.13 57.296l-6.256-3.638c-.365-.213-1.05.286-1.26.65-.21.363-.307 1.202.06 1.414l2.095 1.22-2.548-.908c-.408-.088-.723.014-.81.425-.073.33.128.577.405.74.068.038.166.026.244.045l7.448 1.588c.367.08.773-.188.91-.536.136-.35.037-.814-.288-1z"/><linearGradient id="al" gradientUnits="userSpaceOnUse" x1="62.646" y1="155.399" x2="71.4" y2="155.399" gradientTransform="rotate(30.174 263.833 182.44)"><stop offset="0" stop-color="#76767d"/><stop offset="1" stop-color="#a4a8a8"/></linearGradient><path fill="url(#al)" stroke="#444" stroke-miterlimit="10" d="M110.42 61.938l-2.09-1.215 2.897.297c.41.09.9-.317.99-.73.086-.41-.13-.89-.54-.978l-7.41-1.642c-.366-.078-.814.253-.948.602s-.073.878.25 1.065l.567.33.094 2.127 3.103 1.804 1.91-.962.576.334c.364.212.747.23.958-.135.212-.36.007-.686-.357-.897z"/><linearGradient id="am" gradientUnits="userSpaceOnUse" x1="56.755" y1="136.893" x2="77.306" y2="136.893" gradientTransform="rotate(30.174 263.833 182.44)"><stop offset="0" stop-color="#f79d2a"/><stop offset="1" stop-color="#ffcd2e"/></linearGradient><path fill="url(#am)" stroke="#515151" stroke-width="2" stroke-miterlimit="10" d="M122.78 33.496c-4.903-2.844-11.192-1.183-14.042 3.72-1.37 2.355-1.354 5.088-1.2 7.617.34 5.59-2.454 6.886-.903 7.787l3.756 2.184 3.774 2.193c1.55.9 1.29-2.17 6.316-4.64 2.275-1.117 4.617-2.393 5.986-4.75 2.852-4.902 1.215-11.255-3.685-14.11z"/><path fill="#FFF" d="M120.093 47.468c-.047.036-4.693 3.66-6.998 7.97-.14.265-.416.397-.61.302-.01-.002-.013-.005-.02-.01-.18-.104-.218-.39-.08-.645 1.933-3.616 5.28-6.67 6.706-7.877l-1.24-.723c-.163-.095-.212-.335-.118-.566l-1.31 1.157c-.18.158-.4.18-.53.05-.133-.128-.145-.372-.03-.595l.444-.85-1.006.963c-.184.174-.414.205-.55.063-.138-.136-.142-.396-.01-.62l.507-.875-.867.78c-.182.162-.408.185-.535.052-.133-.132-.14-.384-.02-.604l.813-1.478-.31.203c-.138.09-.292.108-.405.042l-1.193-.694c-.604 4.043-3.44 9.396-3.57 9.638-.143.267-.414.4-.61.305-.204-.08-.243-.39-.1-.653.03-.06 3.282-6.197 3.505-10.008a.717.717 0 0 1 .26-.498c.15-.12.322-.15.45-.075l1.622.945 1.37-.91c.18-.118.376-.106.485.033.11.14.11.372-.004.578l-.473.864 1.018-.915c.182-.164.408-.184.543-.05.13.14.13.398.002.62l-.377.646.714-.68c.18-.17.406-.198.543-.074.137.127.154.376.035.602l-.557 1.066 1.098-.973c.176-.15.387-.173.52-.057.134.118.157.352.054.57l-.564 1.242 1.508.875c.12.07.18.225.16.404a.71.71 0 0 1-.267.464z"/><path opacity=".3" fill="none" stroke="#FFF" stroke-width="3" stroke-linecap="round" stroke-miterlimit="10" d="M122.666 36.393c-4.328-2.516-9.895-1.015-12.436 3.354"/></g><g opacity=".7"><linearGradient id="an" gradientUnits="userSpaceOnUse" x1="299.252" y1="64.735" x2="305.46" y2="64.735" gradientTransform="rotate(-73.71 188.92 258.727)"><stop offset="0" stop-color="#76767d"/><stop offset="1" stop-color="#a4a8a8"/></linearGradient><path fill="url(#an)" stroke="#444" stroke-miterlimit="10" d="M33.862 92.555l-1.44 4.924c-.083.286.377.67.662.753.287.086.88.008.964-.28l.483-1.65-.19 1.91c.008.296.13.493.43.483.24-.006.375-.188.44-.404.015-.055-.01-.12-.01-.176l-.175-5.395c-.007-.265-.26-.5-.524-.534-.262-.033-.563.115-.638.37z"/><linearGradient id="ao" gradientUnits="userSpaceOnUse" x1="299.25" y1="67.114" x2="305.454" y2="67.114" gradientTransform="rotate(-73.71 188.92 258.727)"><stop offset="0" stop-color="#76767d"/><stop offset="1" stop-color="#a4a8a8"/></linearGradient><path fill="url(#ao)" stroke="#444" stroke-miterlimit="10" d="M37.516 93.63l-.48 1.645-.288-2.043c-.008-.3-.372-.566-.668-.56-.3.01-.59.24-.58.54l.13 5.377c.006.263.31.515.573.548.264.033.615-.1.69-.354l.13-.447 1.448-.426.716-2.44-.988-1.15.132-.453c.084-.285.03-.553-.254-.637-.288-.083-.475.114-.56.4z"/><linearGradient id="ap" gradientUnits="userSpaceOnUse" x1="295.077" y1="53.998" x2="309.64" y2="53.998" gradientTransform="rotate(-73.71 188.92 258.727)"><stop offset="0" stop-color="#f79d2a"/><stop offset="1" stop-color="#ffcd2e"/></linearGradient><path fill="url(#ap)" stroke="#515151" stroke-width="2" stroke-miterlimit="10" d="M15.847 89.963c-1.122 3.857 1.09 7.902 4.947 9.027 1.854.543 3.73.066 5.444-.47 3.787-1.183 5.155.52 5.51-.7l.865-2.955.868-2.97c.358-1.22-1.713-.52-4.265-3.558-1.156-1.375-2.433-2.77-4.285-3.31-3.858-1.128-7.95 1.08-9.083 4.936z"/><path fill="#FFF" d="M25.917 89.438c.032.025 3.317 2.605 6.673 3.46.206.05.345.216.313.366a.046.046 0 0 1-.004.016c-.043.143-.23.215-.432.164-2.815-.715-5.487-2.5-6.56-3.273l-.285.978c-.038.13-.195.203-.37.178l1.02.703c.14.097.19.245.125.356-.067.113-.232.164-.404.12l-.66-.16.834.528c.15.096.21.25.137.37-.07.116-.25.163-.426.11l-.69-.2.687.466c.142.094.194.246.126.357-.068.113-.24.162-.413.115l-1.156-.305.193.178c.086.078.124.182.097.27l-.274.94c2.884-.272 7.05.77 7.237.817.206.053.347.217.313.37-.022.15-.228.23-.434.177-.046-.01-4.82-1.204-7.48-.71a.515.515 0 0 1-.388-.094c-.107-.082-.156-.197-.127-.297l.373-1.278-.856-.787c-.113-.104-.14-.24-.062-.34.077-.098.238-.137.398-.096l.676.177-.804-.545c-.145-.096-.195-.248-.125-.363.074-.114.25-.16.424-.108l.51.148-.59-.373c-.145-.096-.204-.246-.142-.36.063-.118.23-.17.408-.128l.828.2-.857-.59c-.133-.094-.185-.234-.126-.348.058-.11.214-.168.382-.133l.95.175.347-1.186c.026-.095.123-.165.25-.18a.504.504 0 0 1 .364.108z"/><path opacity=".3" fill="none" stroke="#FFF" stroke-width="3" stroke-linecap="round" stroke-miterlimit="10" d="M17.86 89.55c-.996 3.403.984 6.98 4.42 7.985"/></g><linearGradient id="aq" gradientUnits="userSpaceOnUse" x1="41.44" y1="291.732" x2="53.11" y2="291.732" gradientTransform="rotate(90 191.904 168.53)"><stop offset="0" stop-color="#f79d2a"/><stop offset="1" stop-color="#ffcd2e"/></linearGradient><path opacity=".5" fill="url(#aq)" d="M68.7 29.735a1.28 1.28 0 0 1-1.278-1.28v-9.11c0-.707.573-1.28 1.28-1.28.707 0 1.28.573 1.28 1.28v9.11a1.28 1.28 0 0 1-1.28 1.28z"/><linearGradient id="ar" gradientUnits="userSpaceOnUse" x1="37.701" y1="258.447" x2="49.37" y2="258.447" gradientTransform="rotate(124.897 123.613 155.15)"><stop offset="0" stop-color="#f79d2a"/><stop offset="1" stop-color="#ffcd2e"/></linearGradient><path opacity=".5" fill="url(#ar)" d="M81.36 35.16a1.28 1.28 0 0 1-.315-1.782l5.21-7.472a1.277 1.277 0 0 1 1.782-.317c.58.403.723 1.2.316 1.78l-5.21 7.473a1.283 1.283 0 0 1-1.782.317z"/><linearGradient id="as" gradientUnits="userSpaceOnUse" x1="22.754" y1="237.53" x2="34.422" y2="237.53" gradientTransform="rotate(152.325 85.908 147.184)"><stop offset="0" stop-color="#f79d2a"/><stop offset="1" stop-color="#ffcd2e"/></linearGradient><path opacity=".5" fill="url(#as)" d="M89.54 43.26a1.28 1.28 0 0 1 .536-1.73l8.068-4.23a1.28 1.28 0 0 1 1.73.54c.327.624.087 1.398-.542 1.726L91.268 43.8c-.628.326-1.4.085-1.73-.54z"/><linearGradient id="at" gradientUnits="userSpaceOnUse" x1="48.201" y1="273.503" x2="59.871" y2="273.503" gradientTransform="rotate(55.104 -238.002 -123.12)"><stop offset="0" stop-color="#f79d2a"/><stop offset="1" stop-color="#ffcd2e"/></linearGradient><path opacity=".5" fill="url(#at)" d="M55.755 35.16a1.28 1.28 0 0 0 .318-1.782l-5.212-7.472a1.28 1.28 0 0 0-1.782-.317 1.278 1.278 0 0 0-.316 1.78l5.21 7.473c.406.578 1.204.72 1.783.317z"/><linearGradient id="au" gradientUnits="userSpaceOnUse" x1="38.963" y1="246.032" x2="50.631" y2="246.032" gradientTransform="rotate(27.677 -538.103 -107.695)"><stop offset="0" stop-color="#f79d2a"/><stop offset="1" stop-color="#ffcd2e"/></linearGradient><path opacity=".5" fill="url(#au)" d="M47.525 43.26a1.28 1.28 0 0 0-.538-1.73L38.92 37.3a1.28 1.28 0 0 0-1.73.54c-.328.624-.087 1.398.54 1.726l8.066 4.233c.628.326 1.4.085 1.73-.54z"/><g><path fill="#E8E8E8" stroke="#444" stroke-width="2" stroke-miterlimit="10" d="M84.835 118.928L96.18 91.95s20.243 5.608 28.804-5.538c.432-.56-.586 3.34-.586 3.34l-9.19 24.885s-3.583 13.047-30.222 3.936"/><linearGradient id="av" gradientUnits="userSpaceOnUse" x1="63.123" y1="209.657" x2="84.234" y2="209.657" gradientTransform="rotate(20.544 385.3 245.748)"><stop offset="0" stop-color="#f79d2a"/><stop offset="1" stop-color="#ffcd2e"/></linearGradient><path fill="none" stroke="url(#av)" stroke-width="3" stroke-linecap="round" stroke-miterlimit="10" d="M115.812 102.635s-6.506 3.21-19.295-.125"/><linearGradient id="aw" gradientUnits="userSpaceOnUse" x1="70.832" y1="201.099" x2="90.728" y2="201.099" gradientTransform="rotate(16.784 414.5 241.847)"><stop offset="0" stop-color="#56af5e"/><stop offset="1" stop-color="#c1d24d"/></linearGradient><path fill="none" stroke="url(#aw)" stroke-width="3" stroke-linecap="round" stroke-miterlimit="10" d="M115.783 105.813s-5.055 3.775-18.037 1.29"/><linearGradient id="ax" gradientUnits="userSpaceOnUse" x1="70.866" y1="205.369" x2="90.528" y2="205.369" gradientTransform="rotate(16.784 414.5 241.847)"><stop offset="0" stop-color="#56af5e"/><stop offset="1" stop-color="#c1d24d"/></linearGradient><path fill="none" stroke="url(#ax)" stroke-width="3" stroke-linecap="round" stroke-miterlimit="10" d="M114.32 109.97s-3.816 3.673-17.736 1.103"/><linearGradient id="ay" gradientUnits="userSpaceOnUse" x1="60.787" y1="229.61" x2="84.023" y2="229.61" gradientTransform="rotate(22.73 374.863 247.053)"><stop offset="0" stop-color="#f79d2a"/><stop offset="1" stop-color="#ffcd2e"/></linearGradient><path fill="none" stroke="url(#ay)" stroke-width="3" stroke-linecap="round" stroke-miterlimit="10" d="M113.482 114.38s-6.71 3.51-21.695-.583"/><path fill="#434347" d="M94.13 96.182l2.05-4.23s20.243 5.607 28.804-5.54c.432-.56-.586 3.34-.586 3.34s-1.352 14.2-29.938 6.765"/><linearGradient id="az" gradientUnits="userSpaceOnUse" x1="223.88" y1="64.399" x2="261.675" y2="64.399" gradientTransform="rotate(-44.988 219.845 230.122)"><stop offset=".124" stop-color="#9ca5aa"/><stop offset="1" stop-color="#cfd7db"/></linearGradient><path fill="url(#az)" stroke="#565656" stroke-width="2" stroke-miterlimit="10" d="M127.488 83.116c-.082-5.096-2.975-7.527-2.975-7.527s-13.365 31.718-13.26 31.83c4.55 5.064 2.053 10.41 2.053 10.41l14.182-34.714z"/><ellipse transform="rotate(25.12 97.634 94.464)" fill="#EC4643" cx="97.641" cy="94.476" rx=".95" ry="1.038"/><path fill="#FFCD2E" d="M101.046 95.288c-.2.535-.762.818-1.252.635-.494-.182-.73-.766-.53-1.3.202-.538.765-.825 1.255-.638.49.182.728.767.526 1.303z"/><ellipse transform="rotate(18.933 102.64 95.453)" fill="#C2E046" cx="102.635" cy="95.436" rx=".951" ry="1.037"/></g><g><path fill="#E8E8E8" stroke="#444" stroke-width="2" stroke-miterlimit="10" d="M42.474 1.138l-.858 29.055s-20.762 2.05-24.704 15.44c-.2.675-.653-3.302-.653-3.302l-.392-26.348s-1.35-13.368 26.594-14.46"/><linearGradient id="aA" gradientUnits="userSpaceOnUse" x1="239.214" y1="372.321" x2="258.443" y2="372.321" gradientTransform="rotate(171.19 152.368 192.403)"><stop offset="0" stop-color="#f79d2a"/><stop offset="1" stop-color="#ffcd2e"/></linearGradient><path fill="none" stroke="url(#aA)" stroke-width="3" stroke-linecap="round" stroke-miterlimit="10" d="M21.866 33.104s2.572-4.11 15.268-7.45"/><linearGradient id="aB" gradientUnits="userSpaceOnUse" x1="19.602" y1="24.997" x2="36.221" y2="24.997"><stop offset="0" stop-color="#56af5e"/><stop offset="1" stop-color="#c1d24d"/></linearGradient><path fill="none" stroke="url(#aB)" stroke-width="3" stroke-linecap="round" stroke-miterlimit="10" d="M21.103 28.996s1.17-3.828 13.618-7.998"/><linearGradient id="aC" gradientUnits="userSpaceOnUse" x1="18.845" y1="20.59" x2="36.476" y2="20.59"><stop offset="0" stop-color="#56af5e"/><stop offset="1" stop-color="#c1d24d"/></linearGradient><path fill="none" stroke="url(#aC)" stroke-width="3" stroke-linecap="round" stroke-miterlimit="10" d="M20.345 24.54s6.055-6.603 14.63-7.9"/><linearGradient id="aD" gradientUnits="userSpaceOnUse" x1="241.101" y1="386.334" x2="263.431" y2="386.334" gradientTransform="rotate(173.38 150.92 194.694)"><stop offset="0" stop-color="#f79d2a"/><stop offset="1" stop-color="#ffcd2e"/></linearGradient><path fill="none" stroke="url(#aD)" stroke-width="3" stroke-linecap="round" stroke-miterlimit="10" d="M18.925 20.316s8.095-7.738 18.463-8.587"/><path fill="#434347" d="M42 1.326l-.34 6.468s-20.807.234-24.75 13.626c-.2.675-.652-3.303-.652-3.303s-3.83-13.64 25.318-16.98"/><linearGradient id="aE" gradientUnits="userSpaceOnUse" x1="172.552" y1="304.108" x2="207.546" y2="304.108" gradientTransform="rotate(113.89 191.82 113.872)"><stop offset=".124" stop-color="#9ca5aa"/><stop offset="1" stop-color="#cfd7db"/></linearGradient><path fill="url(#aE)" stroke="#565656" stroke-width="2" stroke-miterlimit="10" d="M15.77 49.586c1.9 4.69 5.448 5.908 5.448 5.908s1.033-34.173.896-34.24c-6.026-3.062-6.122-6.34-6.122-6.34l-.22 34.672z"/></g></svg><svg width="30" height="29.263" viewBox="0 0 30 29.263" id="git" x="512" y="289.92900000000003"><path d="M19.746 29.238c-.762.137-1.016-.332-1.016-.723v-4.12c0-1.407-.47-2.306-1.016-2.774 3.34-.37 6.855-1.64 6.855-7.4 0-1.642-.587-2.99-1.544-4.024.156-.39.664-1.914-.156-3.984-1.25-.39-4.12 1.543-4.12 1.543a14.066 14.066 0 0 0-7.5 0S8.38 5.82 7.11 6.21c-.802 2.07-.294 3.595-.138 3.985-.956 1.035-1.542 2.383-1.542 4.024 0 5.74 3.496 7.03 6.836 7.4-.43.392-.82 1.036-.957 2.013-.86.39-3.048 1.055-4.356-1.25-.82-1.426-2.305-1.543-2.305-1.543-1.466-.02-.1.918-.1.918.978.45 1.66 2.188 1.66 2.188.88 2.676 5.06 1.777 5.06 1.777 0 1.25.02 2.44.02 2.793 0 .39-.273.86-1.035.723C4.297 27.245 0 21.62 0 15 0 6.72 6.72 0 15 0s15 6.72 15 15c0 6.62-4.297 12.246-10.254 14.238z"/></svg><svg width="140" height="138.526" viewBox="0 0 140 138.526" id="hello" x="512" y="130"><path fill="#8CC34B" d="M83.08 0c0 3.513-2.85 6.36-6.36 6.36a6.36 6.36 0 0 1 6.36 6.358A6.356 6.356 0 0 1 89.44 6.36 6.357 6.357 0 0 1 83.08 0zM9.117 95.573a6.36 6.36 0 0 1-6.36 6.36 6.36 6.36 0 0 1 6.36 6.358 6.357 6.357 0 0 1 6.357-6.358 6.357 6.357 0 0 1-6.357-6.36zM31.432 33.578a4.514 4.514 0 0 1-4.515 4.515 4.516 4.516 0 0 1 4.515 4.517 4.516 4.516 0 0 1 4.515-4.517 4.514 4.514 0 0 1-4.515-4.515zM66.806 116.893a4.514 4.514 0 0 1-4.515 4.514 4.516 4.516 0 0 1 4.516 4.518 4.516 4.516 0 0 1 4.515-4.518 4.514 4.514 0 0 1-4.514-4.514zM135.485 104.258a4.513 4.513 0 0 1-4.514 4.514 4.516 4.516 0 0 1 4.515 4.518 4.516 4.516 0 0 1 4.516-4.518 4.514 4.514 0 0 1-4.515-4.514z"/><linearGradient id="ca" gradientUnits="userSpaceOnUse" x1="120.993" y1="66.724" x2="135.485" y2="66.724"><stop offset="0" stop-color="#f79d2a"/><stop offset="1" stop-color="#ffcd2e"/></linearGradient><path fill="url(#ca)" d="M128.24 59.478a7.25 7.25 0 0 1-7.247 7.248c4 0 7.248 3.244 7.248 7.246a7.244 7.244 0 0 1 7.245-7.246 7.246 7.246 0 0 1-7.244-7.248z"/><linearGradient id="cb" gradientUnits="userSpaceOnUse" x1="35.946" y1="6.359" x2="44.056" y2="6.359"><stop offset="0" stop-color="#f79d2a"/><stop offset="1" stop-color="#ffcd2e"/></linearGradient><path fill="url(#cb)" d="M40 2.305a4.053 4.053 0 0 1-4.054 4.054A4.054 4.054 0 0 1 40 10.414a4.055 4.055 0 0 1 4.056-4.056A4.054 4.054 0 0 1 40 2.304z"/><linearGradient id="cc" gradientUnits="userSpaceOnUse" y1="31.375" x2="14.363" y2="31.375"><stop offset="0" stop-color="#f79d2a"/><stop offset="1" stop-color="#ffcd2e"/></linearGradient><path fill="url(#cc)" d="M7.18 24.192A7.18 7.18 0 0 1 0 31.372a7.183 7.183 0 0 1 7.18 7.185 7.182 7.182 0 0 1 7.184-7.184 7.18 7.18 0 0 1-7.183-7.18z"/><linearGradient id="cd" gradientUnits="userSpaceOnUse" x1="93.932" y1="131.344" x2="108.295" y2="131.344"><stop offset="0" stop-color="#f79d2a"/><stop offset="1" stop-color="#ffcd2e"/></linearGradient><path fill="url(#cd)" d="M101.114 124.163c0 3.97-3.22 7.182-7.182 7.182a7.184 7.184 0 0 1 7.182 7.182 7.18 7.18 0 0 1 7.182-7.182 7.18 7.18 0 0 1-7.182-7.182z"/><linearGradient id="ce" gradientUnits="userSpaceOnUse" x1="47.881" y1="58.098" x2="92.648" y2="58.098"><stop offset="0" stop-color="#f79d2a"/><stop offset="1" stop-color="#ffcd2e"/></linearGradient><path fill="url(#ce)" stroke="#515151" stroke-width="2" stroke-miterlimit="10" d="M92.45 82.727c.445-3.342 0-5.535 0-5.535v-28.31c-.676-.204-1.375-.345-2.115-.345-2.154 0-4.076.935-5.426 2.405V32.91a5.03 5.03 0 0 0-5.03-5.03c-1.512 0-2.852.68-3.773 1.734v-2.74a5.03 5.03 0 0 0-10.057 0v3.196a5.016 5.016 0 0 0-4.147-2.19 5.03 5.03 0 0 0-5.03 5.03v6.662c-.922-1.142-2.315-1.888-3.896-1.888a5.028 5.028 0 0 0-5.03 5.03V77.19c-.754 15.653 5.375 17.16 5.375 17.16h34.375c2.936-4.067 4.178-7.97 4.666-11.028h.09v-.595z"/><path fill="none" stroke="#515151" stroke-width="2" stroke-linecap="round" stroke-miterlimit="10" d="M92.588 83.323v-34.44c-.674-.205-1.375-.346-2.113-.346a7.394 7.394 0 0 0-7.396 7.396v12.994"/><path fill="none" stroke="#515151" stroke-linecap="round" stroke-miterlimit="10" d="M67.488 94.352c-.063-.76-.1-1.533-.1-2.313 0-12.28 8.254-22.235 18.434-22.235"/><path fill="none" stroke="#515151" stroke-width="2" stroke-linecap="round" stroke-miterlimit="10" d="M56.887 38.094V60.13M66.145 29.97v30.16M76.168 29.073V60.13"/><path fill="none" stroke="#515151" stroke-linecap="round" stroke-miterlimit="10" d="M80.083 35.8h-3.915M80.083 47.87h-3.915M70.057 32.532h-3.912M60.8 37.685h-3.913M60.8 50.383h-3.913M51.793 47.87H47.88M51.793 55.663H47.88M70.057 46.33h-3.912"/><path fill="none" d="M81.204 59.16c-.63.082-4.074.44-8.967 1.89a54.646 54.646 0 0 0-8.242 3.196c-2.92 1.5-6.025 3.332-8.627 5.704-2.697 2.28-4.768 4.994-6.267 7.56-1.392 2.57-2.3 5.03-2.66 7.022-.563 2.07-.506 3.61-.594 4.74-.047 1.12-.07 1.76-.07 1.76l25.48-1.984.064-.797c.057-.49-.03-1.28.236-1.985a7.115 7.115 0 0 1 2.422-4.21c.61-.63 1.596-1.16 2.56-1.69 1.046-.488 2.16-.932 3.212-1.234 2.094-.628 3.578-.75 2.934-.687l-1.48-19.283z"/><path fill="#FFF" d="M72.793 70.15l-.865.33c-.55.216-1.3.58-2.216.993-1.77.904-4.11 2.213-5.957 3.92-1.965 1.63-3.32 3.594-4.203 5.076-.466.735-.642 1.395-.86 1.84l-.3.702 2.453.385.268-.633c.2-.395.348-1 .77-1.65.79-1.32 1.985-3.064 3.733-4.508 1.632-1.52 3.744-2.697 5.344-3.518.838-.37 1.52-.707 2.02-.906l.797-.3-.984-1.73zM80.15 68.092l.386 1.897s-.246.042-.617.112c-.372.078-.862.188-1.358.293-.97.254-1.943.514-1.943.514l-.73-1.817s1.054-.283 2.11-.555c.533-.115 1.068-.232 1.47-.32.407-.074.68-.126.68-.126zM57.688 85.49l2.517.16s-.045.188-.11.474-.176.666-.168 1.053l-.082 1.54-2.548.103s.047-.83.092-1.662c-.007-.416.108-.832.18-1.145.074-.315.118-.522.118-.522z"/><g><path fill="none" d="M46.394 72.272c.353.23 2.22 1.56 5.403 2.766 1.593.61 3.557 1.16 5.796 1.49 2.26.268 4.798.373 7.4-.14 2.593-.4 5.132-1.41 7.31-2.57 2.13-1.214 3.96-2.57 5.262-3.84 1.445-1.238 2.29-2.373 2.975-3.15.652-.788 1.027-1.236 1.027-1.236l-13.442-10.31s-.174.2-.482.545c-.305.332-.71.94-1.237 1.324-1.038 1.014-2.245 1.718-3.558 1.926-.65.17-1.426.1-2.192.042-.782-.133-1.572-.325-2.25-.59-1.373-.51-2.16-1.107-1.81-.856l-10.202 14.6z"/><path fill="#FFF" d="M56.684 68.212l.604.163c.39.098.96.178 1.632.304 1.37.164 3.243.297 5.1-.085 1.874-.27 3.642-1.063 4.906-1.727.644-.315 1.103-.717 1.46-.93.343-.238.54-.372.54-.372l-.966-1.406-.49.332c-.318.192-.732.56-1.305.837-1.13.586-2.694 1.295-4.357 1.53-1.648.348-3.336.223-4.573.08-.616-.12-1.134-.19-1.49-.278a78.053 78.053 0 0 1-.553-.152l-.508 1.702zM51.963 66.312l.886-1.55s.144.085.36.205l.822.412c.612.266 1.23.525 1.23.525l-.674 1.646s-.67-.278-1.335-.572c-.323-.16-.65-.323-.892-.446-.237-.134-.397-.22-.397-.22zM72.67 64.103l-1.127-1.274.322-.293c.195-.175.463-.398.678-.682l.91-1.077 1.29 1.1s-.49.58-.983 1.16c-.232.302-.523.55-.738.74-.21.196-.352.325-.352.325z"/></g><g><path fill="none" d="M75.958 56.92l-3.895 1.95a436.112 436.112 0 0 1-8.656 4.176c-3.14 1.468-6.294 2.87-8.506 3.736l-1.44.54-.917.3c-.21.03-.21.065-.228.07l2.596 15.92s.202-.044.578-.122c.355-.08.97-.215 1.575-.387.487-.156 1.08-.35 1.757-.568.588-.22 1.25-.47 1.974-.738 2.765-1.086 6.12-2.588 9.437-4.135 3.312-1.547 6.562-3.133 8.996-4.338 2.44-1.223 4.066-2.04 4.066-2.04L75.958 56.92z"/><path fill="#FFF" d="M73.395 66.313s-3.44 1.693-6.91 3.313c-3.464 1.64-6.98 3.122-6.98 3.122l.626 1.488s3.56-1.504 7.037-3.148c3.487-1.627 6.936-3.326 6.936-3.326l-.708-1.45zM78.206 63.908l.726 1.442-2.752 1.374-.717-1.445zM57.4 73.588l.584 1.504-1.46.547-1.503.49-.45-1.548 1.413-.465c.708-.263 1.416-.53 1.416-.53z"/></g><g fill="#FFF" stroke="#FFF" stroke-width="6" stroke-miterlimit="10"><path d="M40.578 86.956a207.206 207.206 0 0 0-1.92 12.637c1.384-1.38 3.713-3.316 6.05-3.64 3.673-.505 4.78 1.68 4.228 5.075-.463 2.828-2.397 9.473-.083 8.984 1.324-.268 3.202-2.992 4.026-5.656.212-.625 2.125.3 1.932.754-1.335 3.586-3.767 8.172-8.436 9.154-4.216.88-5.224-1.492-5.233-4.04 0-2.17.785-6.66.933-7.444.226-1.137.028-1.96-1.124-1.674-.78.19-1.936 1.074-2.848 2.176-.546 4.37-1.03 8.266-1.377 11.63-.082.946-7.227 2.483-6.984.534 1.126-9.127 2.966-21.71 4.063-28.58 1.32-1.203 6.677-1.217 6.772.09z"/><path d="M69.32 100.22c-1.012 3.16-4.65 5.15-9.464 5.09.513 2.18 2.355 2.907 5.367 2.534 2.384-.285 5.96-1.797 7.562-6.227.21-.625 2.125.3 1.97.707-2.442 6.373-6.16 9.012-11.257 9.67-7.227.95-10.412-2.736-10.604-7.217-.256-5.875 3.88-10.44 9.94-11.19 5.44-.663 7.786 3.097 6.486 6.634zm-9.623 2.39c2.433-.25 3.67-2.078 3.86-3.467.137-.867-.123-1.514-.76-1.512-1.53 0-2.846 2.18-3.1 4.98z"/><path d="M88.977 86.717c-.338 5.574-3.902 10.275-10.016 12.818-.372 4.09.737 6.275 3.587 5.97 1.924-.224 4.867-1.394 6.592-6.18.18-.536 2.01.4 1.89.76-1.826 4.972-4.31 9.183-10.607 9.452-6.508.3-8.04-5.27-7.473-13.514.432-6.14 2.357-12.23 5.977-14.982 4.234-3.217 10.474-1.14 10.05 5.677zm-8.44 2.012c-.44 2.058-1.062 4.95-1.33 7.028 1.878-1.193 3.4-4.338 4.005-6.76.613-2.637.563-5.18-.48-5.035-.878.12-1.61 2.22-2.196 4.766z"/><path d="M105.252 84.48c-.338 5.573-3.902 10.272-10.016 12.815-.373 4.09.736 6.277 3.586 5.97 1.924-.222 4.867-1.394 6.592-6.18.182-.534 2.01.403 1.89.76-1.825 4.972-4.308 9.185-10.606 9.454-6.508.3-8.04-5.274-7.473-13.517.432-6.14 2.357-12.23 5.977-14.98 4.234-3.22 10.474-1.142 10.05 5.676zm-8.44 2.01c-.44 2.058-1.062 4.952-1.33 7.03 1.878-1.195 3.4-4.338 4.005-6.76.613-2.637.563-5.182-.48-5.037-.878.12-1.608 2.22-2.196 4.766z"/><path d="M122.52 99.03c1.996-.02 4.143-1.72 5.184-4.967.213-.625 2.12.26 1.934.754-2.152 5.994-5.89 6.637-8.9 6.71-1.852 1.997-4.365 3.194-7.162 3.58-4.924.677-8.893-1.286-8.21-8.355.59-6.246 4.94-9.865 10.08-10.53 7.812-.99 10.015 6.064 7.074 12.808zm-10.242-3.358c-.328 2.555-.69 5.795 1.73 5.46.54-.073 1.05-.397 1.408-.874-.84-1.158-.162-3.037 1.252-3.273.656-3.58.47-7.082-1.61-6.754-1.497.25-2.384 2.456-2.78 5.442z"/></g><path fill="none" stroke="#434347" stroke-width="2" stroke-miterlimit="10" d="M127.704 94.063c-1.04 3.248-3.188 4.945-5.184 4.967 2.94-6.744.738-13.797-7.076-12.807-5.14.664-9.49 4.283-10.078 10.53-.018.185-.02.354-.03.532-1.733 4.613-4.616 5.762-6.513 5.98-2.85.307-3.96-1.88-3.586-5.97 6.113-2.544 9.678-7.243 10.016-12.817.424-6.818-5.816-8.896-10.05-5.676-3.62 2.752-5.546 8.84-5.978 14.98-.137 1.99-.148 3.82.002 5.455-.033.025-.074.043-.088.086-1.726 4.787-4.67 5.957-6.593 6.18-2.85.307-3.96-1.88-3.586-5.97 6.114-2.542 9.68-7.243 10.017-12.817.424-6.818-5.816-8.895-10.05-5.676-3.62 2.752-5.546 8.842-5.978 14.982-.138 1.98-.147 3.8 0 5.426a.278.278 0 0 0-.165.168c-1.602 4.43-5.178 5.94-7.562 6.227-3.012.373-4.854-.354-5.367-2.535 4.813.06 8.452-1.928 9.464-5.088 1.3-3.537-1.047-7.297-6.484-6.633-5.908.73-9.974 5.088-9.94 10.748-.003.008-.014.01-.017.02-.825 2.664-2.703 5.39-4.027 5.656-2.314.49-.38-6.155.083-8.983.553-3.395-.555-5.58-4.228-5.074-2.337.322-4.666 2.258-6.05 3.64a207.33 207.33 0 0 1 1.92-12.638c-.095-1.307-5.45-1.293-6.773-.09-1.097 6.87-2.937 19.453-4.063 28.58-.242 1.95 6.902.412 6.984-.535.346-3.363.83-7.258 1.377-11.63.912-1.1 2.066-1.983 2.848-2.175 1.153-.287 1.35.537 1.125 1.674-.147.784-.933 5.272-.933 7.442.01 2.55 1.018 4.92 5.233 4.04 3.513-.737 5.76-3.517 7.224-6.374 1.304 2.904 4.452 4.822 9.897 4.105 4.354-.563 7.7-2.58 10.104-7.125 1.005 3.078 3.095 4.84 6.82 4.668 5.126-.22 7.722-3.047 9.497-6.77 1.02 3 3.105 4.702 6.78 4.532 4.722-.2 7.3-2.62 9.063-5.914 1.133 3.29 4.213 4.215 7.813 3.72 2.797-.384 5.31-1.58 7.162-3.58 3.01-.07 6.748-.714 8.9-6.708.188-.493-1.718-1.378-1.93-.753zM96.81 86.49c.59-2.546 1.32-4.646 2.196-4.767 1.043-.145 1.094 2.4.48 5.037-.604 2.422-2.127 5.564-4.004 6.76.268-2.078.892-4.973 1.33-7.03zm-16.274 2.24c.586-2.548 1.318-4.647 2.195-4.767 1.044-.145 1.095 2.398.48 5.035-.603 2.422-2.126 5.566-4.003 6.76.268-2.078.89-4.97 1.33-7.03zm-17.738 8.9c.637 0 .896.646.76 1.513-.19 1.39-1.428 3.217-3.86 3.467.253-2.8 1.57-4.98 3.1-4.98zm53.87-.645c-1.414.236-2.092 2.115-1.252 3.273-.36.477-.867.8-1.408.875-2.422.334-2.06-2.906-1.73-5.46.396-2.987 1.283-5.194 2.78-5.442 2.08-.327 2.267 3.175 1.61 6.755z"/><linearGradient id="cf" gradientUnits="userSpaceOnUse" x1="94.711" y1="31.413" x2="107.517" y2="31.413"><stop offset="0" stop-color="#f79d2a"/><stop offset="1" stop-color="#ffcd2e"/></linearGradient><path opacity=".5" fill="none" stroke="url(#cf)" stroke-width="4" stroke-linecap="round" stroke-miterlimit="10" d="M96.71 19.586s12.19 5.536 7.888 23.653"/><linearGradient id="cg" gradientUnits="userSpaceOnUse" x1="106.338" y1="25.758" x2="116.658" y2="25.758"><stop offset="0" stop-color="#f79d2a"/><stop offset="1" stop-color="#ffcd2e"/></linearGradient><path opacity=".5" fill="none" stroke="url(#cg)" stroke-width="4" stroke-linecap="round" stroke-miterlimit="10" d="M108.338 17.27s8.746 3.975 5.66 16.976"/><linearGradient id="ch" gradientUnits="userSpaceOnUse" x1="663.971" y1="313.562" x2="676.778" y2="313.562" gradientTransform="rotate(-177.44 345.305 195.795)"><stop offset="0" stop-color="#f79d2a"/><stop offset="1" stop-color="#ffcd2e"/></linearGradient><path opacity=".5" fill="none" stroke="url(#ch)" stroke-width="4" stroke-linecap="round" stroke-miterlimit="10" d="M29.62 75.852s-11.933-6.068-6.837-23.98"/><linearGradient id="ci" gradientUnits="userSpaceOnUse" x1="675.599" y1="307.907" x2="685.918" y2="307.907" gradientTransform="rotate(-177.44 345.305 195.795)"><stop offset="0" stop-color="#f79d2a"/><stop offset="1" stop-color="#ffcd2e"/></linearGradient><path opacity=".5" fill="none" stroke="url(#ci)" stroke-width="4" stroke-linecap="round" stroke-miterlimit="10" d="M17.903 77.653S9.34 73.3 12.996 60.446"/></svg><svg width="30" height="30" viewBox="0 0 30 30" id="sk" x="512" y="319.192"><path d="M22.5 30c-1.72 0-3.3-.586-4.57-1.563-.938.195-1.934.313-2.93.313-7.598 0-13.75-6.152-13.75-13.75 0-.996.117-1.992.313-2.93A7.466 7.466 0 0 1 0 7.5 7.5 7.5 0 0 1 7.5 0c1.72 0 3.3.586 4.57 1.563A14.432 14.432 0 0 1 15 1.25c7.598 0 13.75 6.152 13.75 13.75 0 .996-.117 1.993-.313 2.93A7.47 7.47 0 0 1 30 22.5a7.5 7.5 0 0 1-7.5 7.5zm-5.664-16.934l-2.03-.47c-1.485-.35-2.6-.604-2.6-1.737 0-1.036 1.095-1.505 2.814-1.505 3.066 0 3.125 2.246 5.02 2.246 1.27 0 2.03-.995 2.03-2.128 0-2.246-3.73-3.71-7.42-3.71-3.38 0-7.306 1.464-7.306 5.43 0 3.28 2.188 4.452 5.04 5.136l2.85.703c1.74.43 2.814.626 2.814 1.876 0 .996-1.113 1.758-2.832 1.758-3.613 0-3.81-3.008-5.898-3.008-1.367 0-1.973.977-1.973 2.05 0 2.403 3.672 4.356 8.066 4.356 3.673 0 7.5-1.836 7.5-5.8 0-3.4-3.3-4.57-6.074-5.196z"/></svg><svg viewBox="0 0 45.839 45.839" width="512" height="512" id="time"><g fill="#c4ccba"><path d="M22.92 0C10.28 0 0 10.282 0 22.92c0 12.637 10.282 22.92 22.92 22.92s22.918-10.283 22.918-22.92C45.838 10.28 35.556 0 22.918 0zm0 41.585c-10.295 0-18.67-8.374-18.67-18.667 0-10.294 8.376-18.668 18.67-18.668s18.666 8.374 18.666 18.668c0 10.293-8.373 18.667-18.667 18.667z"/><path d="M23.412 26.294h-9.234c-.567 0-1.1-.222-1.502-.623-.4-.4-.62-.933-.622-1.5 0-.568.22-1.102.622-1.504.4-.4.935-.622 1.504-.624h7.108v-8.556a2.123 2.123 0 0 1 3.63-1.5c.4.4.62.935.62 1.502l.002 10.68a2.133 2.133 0 0 1-2.128 2.126z"/></g></svg><svg width="37.513" height="21.403" viewBox="0 0 37.513 21.403" id="vk" x="512" y="268.526"><path d="M34.53 7.29c-3.79 5.04-4.2 4.57-1.074 7.48 3.008 2.793 3.633 4.14 3.73 4.316 0 0 1.25 2.188-1.387 2.207l-5 .078c-1.075.216-2.5-.76-2.5-.76-1.876-1.29-3.634-4.63-5-4.2 0 0-1.407.45-1.368 3.457.02.645-.293.996-.293.996s-.353.37-1.036.43h-2.246c-4.94.313-9.297-4.238-9.297-4.238S4.297 12.135.117 2.31c-.273-.645.02-.957.02-.957S.43.983 1.25.983L6.6.942c.508.078.86.35.86.35s.313.216.47.626C8.807 4.106 9.94 6.1 9.94 6.1c1.954 4.022 3.282 4.706 4.044 4.296 0 0 .996-.605.78-5.47C14.688 3.17 14.2 2.37 14.2 2.37c-.45-.605-1.29-.78-1.66-.84-.294-.04.194-.742.84-1.055.956-.47 2.655-.488 4.667-.47 1.582.02 2.03.118 2.637.255 1.855.45 1.23 2.168 1.23 6.31 0 1.327-.254 3.183.703 3.788.41.273 1.426.04 3.926-4.22 0 0 1.172-2.03 2.09-4.394.156-.43.488-.605.488-.605s.314-.176.743-.117l5.625-.04c1.7-.214 1.973.567 1.973.567.293.802-.625 2.677-2.93 5.743z"/></svg></svg>